<?xml version="1.0" encoding="utf-8"?>
<!-- Generator: Adobe Illustrator 18.0.0, SVG Export Plug-In . SVG Version: 6.00 Build 0)  -->
<!DOCTYPE svg PUBLIC "-//W3C//DTD SVG 1.1//EN" "http://www.w3.org/Graphics/SVG/1.1/DTD/svg11.dtd">
<svg version="1.1" id="Layer_1" xmlns="http://www.w3.org/2000/svg" xmlns:xlink="http://www.w3.org/1999/xlink" x="0px" y="0px"
	 viewBox="0 0 546 280" enable-background="new 0 0 546 280" xml:space="preserve">
<g>
	<g>
		<path fill="#FFFFFF" d="M80.6,139c0,24.9-1.3,50-6.3,74.5c-3,14.5-7.3,29.4-15.8,41.7c-8.7,12.7-24.7,20.2-36.9,7.5
			c-17.4-18.1-13.8-49.9,1.1-68.1c20.4-24.9,62.2-31.8,86.3-8.7c1.7,1.6,4.8,1.2,2.3-1.1c-24.7-23.7-64.8-20.4-88.7,2.6
			C3.1,206.1-0.7,240,16.9,261.3c9.7,11.8,25.5,15.5,37.8,5.4c8.8-7.3,14-18.3,17.8-28.9c6.7-18.5,9.4-38.4,11-58
			c1.1-12.9,1.4-25.8,1.4-38.8C84.9,139.5,80.6,137.4,80.6,139L80.6,139z"/>
	</g>
</g>
<g>
	<g>
		<path fill="#FFFFFF" d="M84.2,142.4c0-24.7-1.3-49.5-6.1-73.8c-2.9-14.5-7.2-29.3-15-42c-8-13.2-22.7-25-38.1-15.8
			C5.4,22.4,3.1,52.2,10.1,71.2c11.5,30.9,48,48.4,79.4,39.3c8.3-2.4,15.7-6.9,21.9-12.9c1-1-1.9-4.9-2.5-4.3
			c-26.1,25-71.7,17.7-91.6-11.5C4.4,63,6.2,28.6,27.1,15.3c13.7-8.7,27.5,0.5,35,12.7c7.4,12.2,11,26.6,13.7,40.5
			c4.5,23.2,5.5,47,5.6,70.6C81.3,140.3,84.2,143.9,84.2,142.4L84.2,142.4z"/>
	</g>
</g>
<g>
	<g>
		<path fill="#FFFFFF" d="M80.3,140.7C80,158,65.6,172.9,47.6,169.3c-14.1-2.8-23.6-15.9-23.9-29.9C23.3,122,39,107.3,56.4,110.7
			C70.5,113.6,80,126.7,80.3,140.7c0,0.4,4.9-0.2,4.8-1.2c-0.4-18.4-16.3-32.8-34.8-30.7c-17.1,1.9-31.2,14.1-31.6,32
			c-0.4,18.4,16.9,32.7,34.8,30.7c17.1-1.9,31.2-14.1,31.6-32C85.2,139.1,80.4,139.6,80.3,140.7z"/>
	</g>
</g>
<g>
	<path fill="#FFFFFF" d="M143.5,140.2c0-4.8,0.5-9.1,1.5-12.9c1-3.8,2.5-7.1,4.5-9.7c2-2.7,4.4-4.7,7.2-6.1c2.8-1.4,6.1-2.1,9.7-2.1
		c2.5,0,4.8,0.3,6.9,0.9c2.1,0.6,4,1.4,5.7,2.5c1.7,1.1,3.2,2.3,4.5,3.8c1.3,1.5,2.5,3.2,3.5,5v-11.1h3.1v59.9
		c0,3.9-0.5,7.4-1.6,10.5c-1,3.1-2.6,5.8-4.5,8c-2,2.2-4.4,3.9-7.2,5.1c-2.8,1.2-6,1.8-9.6,1.8c-2.2,0-4.3-0.3-6.2-0.8
		c-1.9-0.5-3.7-1.2-5.4-2.1c-1.6-0.9-3.2-2-4.5-3.2c-1.4-1.3-2.6-2.6-3.7-4.1l2.1-2c2.4,3,4.9,5.3,7.7,6.9c2.8,1.6,6.1,2.4,9.9,2.4
		c3.3,0,6.2-0.5,8.7-1.6c2.5-1,4.6-2.5,6.3-4.5c1.7-1.9,2.9-4.3,3.8-7c0.8-2.8,1.3-5.8,1.3-9.2v-8.8c-0.9,1.5-2.1,3-3.4,4.3
		c-1.3,1.3-2.9,2.4-4.6,3.4c-1.7,1-3.6,1.7-5.8,2.2c-2.1,0.5-4.4,0.8-6.9,0.8c-3.6,0-6.8-0.7-9.6-2.2c-2.8-1.5-5.2-3.6-7.2-6.3
		c-1.9-2.7-3.4-6-4.5-9.8c-1-3.8-1.5-8-1.5-12.7V140.2z M146.6,141.4c0,4,0.4,7.8,1.2,11.2c0.8,3.4,2,6.4,3.7,8.8
		c1.6,2.5,3.7,4.4,6.1,5.8c2.5,1.4,5.3,2.1,8.7,2.1c2.8,0,5.4-0.3,7.6-1c2.2-0.7,4.2-1.6,6-2.9c1.7-1.2,3.2-2.6,4.4-4.3
		c1.2-1.6,2.1-3.4,2.8-5.4v-27.6c-0.6-1.8-1.3-3.6-2.3-5.5c-1-1.9-2.3-3.6-3.9-5.1c-1.6-1.5-3.6-2.8-6-3.7c-2.4-1-5.2-1.5-8.5-1.5
		c-3.3,0-6.2,0.7-8.7,2.1c-2.5,1.4-4.5,3.3-6.2,5.8c-1.6,2.5-2.8,5.4-3.7,8.8c-0.8,3.4-1.2,7.1-1.2,11.2V141.4z"/>
	<path fill="#FFFFFF" d="M208.5,91.5c0-0.9,0.3-1.6,0.9-2.2c0.6-0.6,1.3-0.9,2.2-0.9c0.9,0,1.6,0.3,2.2,0.9c0.6,0.6,0.9,1.4,0.9,2.2
		c0,0.9-0.3,1.6-0.9,2.2c-0.6,0.6-1.4,0.9-2.2,0.9c-0.9,0-1.6-0.3-2.2-0.9C208.8,93.1,208.5,92.3,208.5,91.5z M213.1,171.2h-3v-60.8
		h3V171.2z"/>
	<path fill="#FFFFFF" d="M239.6,118.6c1.4-1.9,3-3.5,4.9-4.9c1.8-1.4,3.9-2.4,6.1-3.2c2.2-0.8,4.6-1.2,7.2-1.2
		c3.1,0,5.8,0.4,8.2,1.3c2.4,0.8,4.4,2.2,6.1,4c1.6,1.8,2.9,4.1,3.8,7c0.9,2.8,1.3,6.3,1.3,10.3v39.3h-3v-39.3c0-3.9-0.4-7-1.2-9.6
		c-0.8-2.5-1.9-4.5-3.4-6c-1.5-1.5-3.2-2.5-5.2-3.1c-2-0.6-4.2-0.9-6.6-0.9c-2.2,0-4.2,0.3-6.1,0.9c-1.8,0.6-3.5,1.5-5,2.5
		c-1.5,1-2.8,2.2-4,3.6c-1.2,1.3-2.2,2.8-3,4.3c-0.8,1.5-1.5,3-2.1,4.5c-0.6,1.5-1,2.9-1.3,4.2v38.9h-3v-60.8h3v14.2
		C237,122.5,238.2,120.5,239.6,118.6z"/>
	<path fill="#FFFFFF" d="M335.3,171.2c-0.4-1.4-0.7-3.1-0.9-5.1c-0.2-2-0.3-4-0.3-6c-1,1.6-2.3,3.2-3.8,4.7
		c-1.5,1.5-3.2,2.8-5.2,3.9c-2,1.1-4.2,2-6.7,2.7c-2.5,0.7-5.2,1-8.3,1c-2.8,0-5.4-0.4-7.7-1.2c-2.3-0.8-4.3-1.9-5.9-3.4
		c-1.6-1.5-2.9-3.2-3.8-5.2c-0.9-2-1.3-4.2-1.3-6.7c0-2.7,0.6-5.2,1.9-7.5c1.3-2.3,3.1-4.2,5.5-5.9c2.4-1.6,5.4-2.9,8.8-3.8
		c3.5-0.9,7.4-1.4,11.8-1.4h14.5v-8.9c0-5.1-1.6-9-4.8-11.8c-3.2-2.8-7.8-4.2-13.7-4.2c-2.8,0-5.3,0.4-7.7,1.1
		c-2.4,0.7-4.4,1.8-6.1,3.1c-1.7,1.3-3.1,2.9-4.1,4.7c-1,1.8-1.5,3.8-1.5,5.9l-3-0.1c0-2.4,0.6-4.6,1.7-6.8c1.1-2.2,2.7-4,4.7-5.7
		c2-1.6,4.4-2.9,7.1-3.9c2.8-1,5.8-1.4,9-1.4c3.1,0,6,0.4,8.7,1.2c2.6,0.8,4.9,2,6.8,3.6c1.9,1.6,3.4,3.6,4.5,6
		c1.1,2.4,1.6,5.2,1.6,8.4V159c0,1.1,0,2.2,0.1,3.3c0.1,1.1,0.2,2.2,0.3,3.3c0.1,1,0.3,2,0.5,2.9c0.2,0.9,0.4,1.6,0.7,2.2v0.5H335.3
		z M310.2,169.4c2.9,0,5.6-0.3,8.1-1c2.5-0.7,4.7-1.6,6.7-2.9c2-1.3,3.8-2.8,5.3-4.6c1.5-1.8,2.8-3.8,3.8-6v-14.4h-14.4
		c-3.9,0-7.4,0.4-10.6,1.2c-3.1,0.8-5.7,1.8-7.9,3.2c-2.2,1.4-3.8,3-5,5c-1.2,1.9-1.7,4-1.7,6.3c0,1.8,0.4,3.6,1.2,5.2
		c0.8,1.6,1.8,3,3.2,4.2c1.4,1.2,3,2.2,4.9,2.9C305.8,169,307.9,169.4,310.2,169.4z"/>
	<path fill="#FFFFFF" d="M388,171.2h-3V85h3V171.2z"/>
	<path fill="#FFFFFF" d="M407.1,91.5c0-0.9,0.3-1.6,0.9-2.2c0.6-0.6,1.3-0.9,2.2-0.9c0.9,0,1.6,0.3,2.2,0.9c0.6,0.6,0.9,1.4,0.9,2.2
		c0,0.9-0.3,1.6-0.9,2.2c-0.6,0.6-1.4,0.9-2.2,0.9c-0.9,0-1.6-0.3-2.2-0.9C407.4,93.1,407.1,92.3,407.1,91.5z M411.7,171.2h-3v-60.8
		h3V171.2z"/>
	<path fill="#FFFFFF" d="M427,139.7c0-4.5,0.6-8.5,1.9-12.2c1.3-3.7,3.1-6.9,5.4-9.6c2.3-2.7,5.1-4.8,8.4-6.3
		c3.3-1.5,6.9-2.2,10.8-2.2c4,0,7.6,0.7,10.9,2.2c3.3,1.5,6.1,3.6,8.4,6.3c2.3,2.7,4.1,5.9,5.4,9.6c1.3,3.7,1.9,7.8,1.9,12.2v2.4
		c0,4.5-0.6,8.5-1.9,12.2c-1.3,3.7-3.1,6.9-5.4,9.6c-2.3,2.7-5.1,4.8-8.4,6.3s-6.9,2.2-10.8,2.2c-4,0-7.6-0.7-10.9-2.2
		c-3.3-1.5-6.1-3.6-8.4-6.3c-2.3-2.7-4.2-5.9-5.4-9.6c-1.3-3.7-1.9-7.8-1.9-12.2V139.7z M430.1,142c0,3.6,0.5,7.1,1.6,10.4
		c1.1,3.3,2.6,6.2,4.6,8.7c2,2.5,4.5,4.5,7.4,6c2.9,1.5,6.3,2.2,10,2.2c3.7,0,7-0.7,9.9-2.2c2.9-1.5,5.4-3.5,7.4-6
		c2-2.5,3.5-5.4,4.6-8.7c1.1-3.3,1.6-6.8,1.6-10.4v-2.4c0-3.6-0.5-7-1.6-10.2c-1.1-3.3-2.6-6.2-4.6-8.7c-2-2.5-4.5-4.5-7.4-6.1
		c-2.9-1.5-6.2-2.3-9.9-2.3s-7,0.8-9.9,2.3c-2.9,1.5-5.4,3.5-7.4,6.1c-2,2.5-3.5,5.4-4.6,8.7c-1.1,3.3-1.6,6.7-1.6,10.2V142z"/>
	<path fill="#FFFFFF" d="M501.7,94.1v16.4h13.8v3.1h-13.8v43.1c0,2.7,0.2,4.8,0.7,6.5c0.5,1.6,1.2,2.9,2,3.8
		c0.8,0.9,1.8,1.5,2.9,1.9c1.1,0.3,2.3,0.5,3.5,0.5c1.2,0,2.2,0,3.1-0.1c0.9-0.1,1.9-0.2,2.9-0.4l0.5,2.9c-0.4,0.1-0.9,0.3-1.5,0.3
		c-0.6,0.1-1.1,0.1-1.7,0.2c-0.6,0.1-1.2,0.1-1.7,0.1c-0.6,0-1,0-1.4,0c-1.9,0-3.7-0.2-5.2-0.7c-1.5-0.5-2.8-1.3-3.9-2.5
		c-1.1-1.2-1.9-2.8-2.4-4.8s-0.8-4.5-0.8-7.6v-43.1h-11.2v-3.1h11.2V94.1H501.7z"/>
	<path fill="#FFFFFF" d="M530.5,91.5c0-0.9,0.3-1.6,0.9-2.2c0.6-0.6,1.3-0.9,2.2-0.9s1.6,0.3,2.2,0.9c0.6,0.6,0.9,1.4,0.9,2.2
		c0,0.9-0.3,1.6-0.9,2.2c-0.6,0.6-1.4,0.9-2.2,0.9s-1.6-0.3-2.2-0.9C530.8,93.1,530.5,92.3,530.5,91.5z M535.1,171.2h-3v-60.8h3
		V171.2z"/>
</g>
<g opacity="0.5">
	<path fill="#FFFFFF" d="M183.3,240.8h-2.6v5.2h-2.3v-13.5h4.8c0.8,0,1.5,0.1,2.1,0.3c0.6,0.2,1.1,0.4,1.5,0.8
		c0.4,0.3,0.7,0.8,1,1.3s0.3,1.1,0.3,1.8c0,0.9-0.2,1.7-0.7,2.3c-0.4,0.6-1,1.1-1.8,1.4l3,5.6v0.1H186L183.3,240.8z M180.7,239h2.4
		c0.4,0,0.8-0.1,1.1-0.2s0.6-0.3,0.8-0.5s0.4-0.4,0.5-0.7c0.1-0.3,0.2-0.6,0.2-0.9c0-0.3,0-0.7-0.1-0.9c-0.1-0.3-0.2-0.5-0.5-0.7
		c-0.2-0.2-0.5-0.4-0.8-0.5c-0.3-0.1-0.7-0.2-1.1-0.2h-2.4V239z"/>
	<path fill="#FFFFFF" d="M194.4,246.2c-0.7,0-1.4-0.1-2-0.4s-1.1-0.6-1.5-1c-0.4-0.4-0.7-0.9-1-1.5s-0.3-1.2-0.3-1.9V241
		c0-0.8,0.1-1.5,0.4-2.1c0.2-0.6,0.6-1.2,1-1.6c0.4-0.4,0.9-0.8,1.4-1c0.6-0.2,1.1-0.4,1.8-0.4c0.7,0,1.4,0.1,1.9,0.4
		c0.5,0.2,1,0.6,1.3,1s0.6,1,0.8,1.6c0.2,0.6,0.3,1.3,0.3,2v1h-6.6c0,0.4,0.1,0.7,0.2,1.1c0.1,0.3,0.3,0.6,0.5,0.8
		c0.2,0.2,0.5,0.4,0.8,0.6c0.3,0.1,0.7,0.2,1.1,0.2c0.6,0,1-0.1,1.5-0.3s0.8-0.5,1.1-0.9l1.2,1.2c-0.2,0.2-0.4,0.5-0.6,0.7
		c-0.2,0.2-0.5,0.4-0.8,0.6c-0.3,0.2-0.7,0.3-1.1,0.4C195.4,246.2,194.9,246.2,194.4,246.2z M194.1,237.6c-0.6,0-1.1,0.2-1.5,0.6
		c-0.4,0.4-0.6,1-0.7,1.8h4.3v-0.2c0-0.3-0.1-0.6-0.1-0.9c-0.1-0.3-0.2-0.5-0.4-0.7c-0.2-0.2-0.4-0.4-0.6-0.5
		C194.8,237.7,194.5,237.6,194.1,237.6z"/>
	<path fill="#FFFFFF" d="M204.3,244.4c0.3,0,0.5,0,0.8-0.1c0.2-0.1,0.4-0.2,0.6-0.4c0.2-0.2,0.3-0.3,0.4-0.5s0.2-0.4,0.2-0.7h2.1
		c0,0.5-0.1,0.9-0.4,1.4c-0.2,0.4-0.5,0.8-0.9,1.1c-0.4,0.3-0.8,0.6-1.3,0.8c-0.5,0.2-1,0.3-1.6,0.3c-0.8,0-1.4-0.1-2-0.4
		c-0.6-0.3-1-0.6-1.4-1.1c-0.4-0.5-0.7-1-0.8-1.6c-0.2-0.6-0.3-1.3-0.3-1.9v-0.3c0-0.7,0.1-1.3,0.3-1.9s0.5-1.1,0.8-1.6
		c0.4-0.5,0.9-0.8,1.4-1.1c0.6-0.3,1.2-0.4,2-0.4c0.6,0,1.2,0.1,1.7,0.3c0.5,0.2,0.9,0.4,1.3,0.8c0.4,0.3,0.6,0.7,0.8,1.2
		c0.2,0.5,0.3,1,0.3,1.5h-2.1c0-0.3-0.1-0.5-0.2-0.8s-0.2-0.5-0.4-0.6c-0.2-0.2-0.4-0.3-0.6-0.4s-0.5-0.2-0.8-0.2
		c-0.5,0-0.8,0.1-1.1,0.3c-0.3,0.2-0.5,0.4-0.7,0.7c-0.2,0.3-0.3,0.7-0.4,1c-0.1,0.4-0.1,0.8-0.1,1.2v0.3c0,0.4,0,0.8,0.1,1.2
		c0.1,0.4,0.2,0.7,0.4,1c0.2,0.3,0.4,0.5,0.7,0.7S203.8,244.4,204.3,244.4z"/>
	<path fill="#FFFFFF" d="M210.1,233.4c0-0.3,0.1-0.6,0.3-0.9s0.5-0.3,0.9-0.3s0.7,0.1,0.9,0.3s0.3,0.5,0.3,0.9
		c0,0.3-0.1,0.6-0.3,0.8s-0.5,0.3-0.9,0.3s-0.7-0.1-0.9-0.3S210.1,233.7,210.1,233.4z M212.5,246h-2.3v-10h2.3V246z"/>
	<path fill="#FFFFFF" d="M223.8,241.1c0,0.7-0.1,1.4-0.3,2c-0.2,0.6-0.4,1.2-0.8,1.6c-0.3,0.5-0.7,0.8-1.2,1.1
		c-0.5,0.3-1,0.4-1.7,0.4c-0.6,0-1.1-0.1-1.5-0.3s-0.8-0.5-1.1-0.8v4.8H215V236h2.1l0.1,1c0.3-0.4,0.7-0.7,1.1-0.9
		c0.4-0.2,1-0.3,1.6-0.3c0.6,0,1.2,0.1,1.7,0.4s0.9,0.6,1.2,1s0.6,1,0.8,1.6c0.2,0.6,0.3,1.3,0.3,2.1V241.1z M221.5,240.9
		c0-0.5,0-0.9-0.1-1.3s-0.2-0.7-0.4-1s-0.4-0.5-0.7-0.7c-0.3-0.2-0.6-0.3-1-0.3c-0.5,0-0.9,0.1-1.2,0.3s-0.6,0.5-0.8,0.8v4.5
		c0.2,0.4,0.4,0.6,0.8,0.8c0.3,0.2,0.7,0.3,1.2,0.3c0.4,0,0.8-0.1,1-0.3c0.3-0.2,0.5-0.4,0.7-0.7s0.3-0.7,0.4-1.1
		c0.1-0.4,0.1-0.8,0.1-1.3V240.9z"/>
	<path fill="#FFFFFF" d="M230.1,246.2c-0.7,0-1.4-0.1-2-0.4s-1.1-0.6-1.5-1s-0.7-0.9-1-1.5s-0.3-1.2-0.3-1.9V241
		c0-0.8,0.1-1.5,0.4-2.1c0.2-0.6,0.6-1.2,1-1.6c0.4-0.4,0.9-0.8,1.4-1c0.6-0.2,1.1-0.4,1.8-0.4c0.7,0,1.4,0.1,1.9,0.4
		c0.5,0.2,1,0.6,1.3,1s0.6,1,0.8,1.6c0.2,0.6,0.3,1.3,0.3,2v1h-6.6c0,0.4,0.1,0.7,0.2,1.1s0.3,0.6,0.5,0.8c0.2,0.2,0.5,0.4,0.8,0.6
		s0.7,0.2,1.1,0.2c0.6,0,1-0.1,1.5-0.3c0.4-0.2,0.8-0.5,1.1-0.9l1.2,1.2c-0.2,0.2-0.4,0.5-0.6,0.7c-0.2,0.2-0.5,0.4-0.8,0.6
		c-0.3,0.2-0.7,0.3-1.1,0.4C231.1,246.2,230.6,246.2,230.1,246.2z M229.8,237.6c-0.6,0-1.1,0.2-1.5,0.6c-0.4,0.4-0.6,1-0.7,1.8h4.3
		v-0.2c0-0.3-0.1-0.6-0.1-0.9c-0.1-0.3-0.2-0.5-0.4-0.7c-0.2-0.2-0.4-0.4-0.6-0.5C230.5,237.7,230.2,237.6,229.8,237.6z"/>
	<path fill="#FFFFFF" d="M241.5,243.3c0-0.2,0-0.3-0.1-0.5c-0.1-0.1-0.2-0.3-0.3-0.4c-0.2-0.1-0.4-0.2-0.7-0.3
		c-0.3-0.1-0.6-0.2-1.1-0.3c-0.5-0.1-1-0.2-1.5-0.4s-0.8-0.4-1.1-0.6s-0.6-0.5-0.7-0.8c-0.2-0.3-0.3-0.7-0.3-1.1
		c0-0.4,0.1-0.8,0.3-1.2c0.2-0.4,0.4-0.7,0.8-1s0.7-0.5,1.2-0.7s1-0.2,1.6-0.2c0.6,0,1.2,0.1,1.7,0.2c0.5,0.2,0.9,0.4,1.3,0.7
		c0.3,0.3,0.6,0.6,0.8,1c0.2,0.4,0.3,0.8,0.3,1.3h-2.3c0-0.2,0-0.4-0.1-0.6s-0.2-0.3-0.3-0.5s-0.3-0.3-0.6-0.3
		c-0.2-0.1-0.5-0.1-0.8-0.1c-0.3,0-0.5,0-0.7,0.1c-0.2,0.1-0.4,0.2-0.5,0.3c-0.1,0.1-0.2,0.2-0.3,0.4s-0.1,0.3-0.1,0.5
		s0,0.3,0.1,0.4c0.1,0.1,0.2,0.2,0.3,0.4c0.2,0.1,0.4,0.2,0.6,0.3c0.3,0.1,0.6,0.2,1,0.3c0.6,0.1,1.1,0.3,1.6,0.4
		c0.5,0.2,0.8,0.4,1.2,0.6c0.3,0.2,0.6,0.5,0.7,0.9c0.2,0.3,0.3,0.7,0.3,1.2c0,0.4-0.1,0.9-0.3,1.2s-0.5,0.7-0.8,1
		c-0.4,0.3-0.8,0.5-1.3,0.6s-1.1,0.2-1.7,0.2c-0.7,0-1.3-0.1-1.8-0.3c-0.5-0.2-1-0.5-1.3-0.8c-0.4-0.3-0.6-0.7-0.8-1.1
		c-0.2-0.4-0.3-0.8-0.3-1.2h2.2c0,0.3,0.1,0.6,0.2,0.8c0.1,0.2,0.3,0.4,0.5,0.5s0.4,0.2,0.6,0.3s0.5,0.1,0.7,0.1
		c0.6,0,1-0.1,1.4-0.3C241.3,244,241.5,243.7,241.5,243.3z"/>
	<path fill="#FFFFFF" d="M252.5,236l0.1,1c0.3-0.4,0.7-0.7,1.2-0.9c0.5-0.2,1-0.3,1.7-0.3c0.6,0,1.2,0.1,1.6,0.4
		c0.5,0.2,0.9,0.6,1.1,1.2c0.3-0.5,0.8-0.8,1.3-1.1c0.5-0.3,1.1-0.4,1.8-0.4c0.5,0,1,0.1,1.4,0.2c0.4,0.1,0.8,0.4,1,0.7
		c0.3,0.3,0.5,0.7,0.6,1.2c0.2,0.5,0.2,1,0.2,1.7v6.5h-2.3v-6.5c0-0.4,0-0.7-0.1-0.9c-0.1-0.2-0.2-0.4-0.4-0.6
		c-0.2-0.1-0.3-0.2-0.6-0.3c-0.2-0.1-0.5-0.1-0.7-0.1c-0.5,0-0.9,0.1-1.3,0.4c-0.3,0.3-0.6,0.6-0.7,1.1c0,0,0,0.1,0,0.1s0,0.1,0,0.1
		v6.7h-2.3v-6.5c0-0.4,0-0.7-0.1-0.9c-0.1-0.2-0.2-0.4-0.4-0.6c-0.2-0.1-0.3-0.3-0.6-0.3c-0.2-0.1-0.5-0.1-0.8-0.1
		c-0.5,0-0.9,0.1-1.2,0.3c-0.3,0.2-0.6,0.5-0.7,0.8v7.3h-2.3v-10H252.5z"/>
	<path fill="#FFFFFF" d="M272.9,246c-0.1-0.1-0.1-0.3-0.2-0.4c0-0.2-0.1-0.3-0.1-0.5c-0.1,0.2-0.3,0.3-0.5,0.4s-0.4,0.3-0.6,0.4
		c-0.2,0.1-0.5,0.2-0.7,0.2c-0.3,0.1-0.5,0.1-0.8,0.1c-0.5,0-1-0.1-1.4-0.2s-0.8-0.4-1.1-0.6c-0.3-0.3-0.5-0.6-0.7-1
		c-0.2-0.4-0.3-0.8-0.3-1.2c0-0.5,0.1-1,0.3-1.4c0.2-0.4,0.5-0.8,0.9-1c0.4-0.3,0.9-0.5,1.4-0.6c0.6-0.1,1.2-0.2,1.9-0.2h1.4v-0.7
		c0-0.5-0.1-0.9-0.4-1.2c-0.3-0.3-0.7-0.5-1.3-0.5c-0.3,0-0.5,0-0.7,0.1c-0.2,0.1-0.4,0.2-0.6,0.3c-0.2,0.1-0.3,0.3-0.4,0.4
		c-0.1,0.2-0.1,0.3-0.1,0.5h-2.3c0-0.4,0.1-0.8,0.3-1.1c0.2-0.4,0.5-0.7,0.8-1c0.4-0.3,0.8-0.5,1.3-0.7c0.5-0.2,1.1-0.3,1.7-0.3
		c0.6,0,1.1,0.1,1.6,0.2c0.5,0.1,0.9,0.4,1.2,0.6c0.3,0.3,0.6,0.6,0.8,1.1c0.2,0.4,0.3,0.9,0.3,1.5v4.5c0,0.9,0.1,1.6,0.4,2.2v0.2
		H272.9z M270.5,244.4c0.3,0,0.5,0,0.7-0.1c0.2-0.1,0.4-0.2,0.6-0.3c0.2-0.1,0.3-0.2,0.5-0.4c0.1-0.1,0.2-0.3,0.3-0.4v-1.9h-1.2
		c-0.8,0-1.5,0.1-1.9,0.4c-0.4,0.3-0.6,0.7-0.6,1.2c0,0.2,0,0.4,0.1,0.6c0.1,0.2,0.2,0.3,0.3,0.4c0.1,0.1,0.3,0.2,0.5,0.3
		C270,244.4,270.2,244.4,270.5,244.4z"/>
	<path fill="#FFFFFF" d="M276.8,240.9c0-0.8,0.1-1.5,0.3-2.1c0.2-0.6,0.4-1.2,0.8-1.6c0.3-0.5,0.8-0.8,1.2-1s1-0.4,1.7-0.4
		c0.6,0,1,0.1,1.5,0.3c0.4,0.2,0.8,0.5,1.1,0.8v-5.1h2.3V246h-2l-0.1-1c-0.3,0.4-0.7,0.7-1.1,0.9c-0.4,0.2-1,0.3-1.6,0.3
		c-0.6,0-1.2-0.1-1.6-0.4c-0.5-0.3-0.9-0.6-1.2-1.1s-0.6-1-0.8-1.6c-0.2-0.6-0.3-1.3-0.3-2V240.9z M279.1,241.1c0,0.4,0,0.9,0.1,1.3
		c0.1,0.4,0.2,0.7,0.4,1c0.2,0.3,0.4,0.5,0.7,0.7s0.6,0.3,1,0.3c0.5,0,0.9-0.1,1.2-0.3c0.3-0.2,0.6-0.5,0.8-0.9v-4.3
		c-0.2-0.4-0.5-0.7-0.8-0.9s-0.7-0.3-1.2-0.3c-0.4,0-0.8,0.1-1,0.3c-0.3,0.2-0.5,0.4-0.7,0.7s-0.3,0.6-0.4,1
		c-0.1,0.4-0.1,0.8-0.1,1.3V241.1z"/>
	<path fill="#FFFFFF" d="M292.4,246.2c-0.7,0-1.4-0.1-2-0.4s-1.1-0.6-1.5-1s-0.7-0.9-1-1.5s-0.3-1.2-0.3-1.9V241
		c0-0.8,0.1-1.5,0.4-2.1c0.2-0.6,0.6-1.2,1-1.6c0.4-0.4,0.9-0.8,1.4-1c0.6-0.2,1.1-0.4,1.8-0.4c0.7,0,1.4,0.1,1.9,0.4
		c0.5,0.2,1,0.6,1.3,1s0.6,1,0.8,1.6c0.2,0.6,0.3,1.3,0.3,2v1h-6.6c0,0.4,0.1,0.7,0.2,1.1c0.1,0.3,0.3,0.6,0.5,0.8
		c0.2,0.2,0.5,0.4,0.8,0.6c0.3,0.1,0.7,0.2,1.1,0.2c0.6,0,1-0.1,1.5-0.3s0.8-0.5,1.1-0.9l1.2,1.2c-0.2,0.2-0.4,0.5-0.6,0.7
		c-0.2,0.2-0.5,0.4-0.8,0.6c-0.3,0.2-0.7,0.3-1.1,0.4C293.3,246.2,292.9,246.2,292.4,246.2z M292.1,237.6c-0.6,0-1.1,0.2-1.5,0.6
		c-0.4,0.4-0.6,1-0.7,1.8h4.3v-0.2c0-0.3-0.1-0.6-0.1-0.9c-0.1-0.3-0.2-0.5-0.4-0.7c-0.2-0.2-0.4-0.4-0.6-0.5
		C292.8,237.7,292.5,237.6,292.1,237.6z"/>
	<path fill="#FFFFFF" d="M302.9,233.4c0-0.3,0.1-0.6,0.3-0.9c0.2-0.2,0.5-0.3,0.9-0.3s0.7,0.1,0.9,0.3s0.3,0.5,0.3,0.9
		c0,0.3-0.1,0.6-0.3,0.8s-0.5,0.3-0.9,0.3s-0.7-0.1-0.9-0.3C303,234,302.9,233.7,302.9,233.4z M305.3,246H303v-10h2.3V246z"/>
	<path fill="#FFFFFF" d="M309.8,236l0.1,1.2c0.4-0.4,0.8-0.8,1.3-1s1-0.4,1.7-0.4c0.5,0,0.9,0.1,1.3,0.2c0.4,0.1,0.7,0.3,1,0.6
		s0.5,0.7,0.6,1.2s0.2,1.1,0.2,1.7v6.5h-2.3v-6.5c0-0.3,0-0.6-0.1-0.9c-0.1-0.2-0.2-0.4-0.3-0.6s-0.3-0.3-0.6-0.3
		c-0.2-0.1-0.5-0.1-0.8-0.1c-0.5,0-0.9,0.1-1.2,0.3c-0.3,0.2-0.6,0.5-0.8,0.9v7.1h-2.3v-10H309.8z"/>
	<path fill="#FFFFFF" d="M325.7,246h-2.3v-13.5h2.3V246z"/>
	<path fill="#FFFFFF" d="M333.6,238.1c-0.1,0-0.3,0-0.4-0.1c-0.2,0-0.3,0-0.5,0c-0.5,0-1,0.1-1.3,0.3c-0.3,0.2-0.6,0.5-0.8,0.9v6.9
		h-2.3v-10h2.2l0.1,1.1c0.3-0.4,0.6-0.7,0.9-1c0.4-0.2,0.8-0.3,1.3-0.3c0.1,0,0.3,0,0.4,0c0.2,0,0.3,0.1,0.4,0.1L333.6,238.1z"/>
	<path fill="#FFFFFF" d="M339.3,246.2c-0.7,0-1.4-0.1-2-0.4s-1.1-0.6-1.5-1s-0.7-0.9-1-1.5s-0.3-1.2-0.3-1.9V241
		c0-0.8,0.1-1.5,0.4-2.1c0.2-0.6,0.6-1.2,1-1.6c0.4-0.4,0.9-0.8,1.4-1c0.6-0.2,1.1-0.4,1.8-0.4c0.7,0,1.4,0.1,1.9,0.4
		c0.5,0.2,1,0.6,1.3,1s0.6,1,0.8,1.6c0.2,0.6,0.3,1.3,0.3,2v1h-6.6c0,0.4,0.1,0.7,0.2,1.1c0.1,0.3,0.3,0.6,0.5,0.8
		c0.2,0.2,0.5,0.4,0.8,0.6c0.3,0.1,0.7,0.2,1.1,0.2c0.6,0,1-0.1,1.5-0.3s0.8-0.5,1.1-0.9l1.2,1.2c-0.2,0.2-0.4,0.5-0.6,0.7
		c-0.2,0.2-0.5,0.4-0.8,0.6c-0.3,0.2-0.7,0.3-1.1,0.4C340.3,246.2,339.8,246.2,339.3,246.2z M339,237.6c-0.6,0-1.1,0.2-1.5,0.6
		c-0.4,0.4-0.6,1-0.7,1.8h4.3v-0.2c0-0.3-0.1-0.6-0.1-0.9c-0.1-0.3-0.2-0.5-0.4-0.7c-0.2-0.2-0.4-0.4-0.6-0.5
		C339.7,237.7,339.4,237.6,339,237.6z"/>
	<path fill="#FFFFFF" d="M347.5,246h-2.3v-14.2h2.3V246z"/>
	<path fill="#FFFFFF" d="M355.9,246c-0.1-0.1-0.1-0.3-0.2-0.4c0-0.2-0.1-0.3-0.1-0.5c-0.1,0.2-0.3,0.3-0.5,0.4s-0.4,0.3-0.6,0.4
		c-0.2,0.1-0.5,0.2-0.7,0.2c-0.3,0.1-0.5,0.1-0.8,0.1c-0.5,0-1-0.1-1.4-0.2s-0.8-0.4-1.1-0.6c-0.3-0.3-0.5-0.6-0.7-1
		c-0.2-0.4-0.3-0.8-0.3-1.2c0-0.5,0.1-1,0.3-1.4c0.2-0.4,0.5-0.8,0.9-1c0.4-0.3,0.9-0.5,1.4-0.6c0.6-0.1,1.2-0.2,1.9-0.2h1.4v-0.7
		c0-0.5-0.1-0.9-0.4-1.2c-0.3-0.3-0.7-0.5-1.3-0.5c-0.3,0-0.5,0-0.7,0.1c-0.2,0.1-0.4,0.2-0.6,0.3c-0.2,0.1-0.3,0.3-0.4,0.4
		c-0.1,0.2-0.1,0.3-0.1,0.5h-2.3c0-0.4,0.1-0.8,0.3-1.1c0.2-0.4,0.5-0.7,0.8-1c0.4-0.3,0.8-0.5,1.3-0.7c0.5-0.2,1.1-0.3,1.7-0.3
		c0.6,0,1.1,0.1,1.6,0.2c0.5,0.1,0.9,0.4,1.2,0.6c0.3,0.3,0.6,0.6,0.8,1.1c0.2,0.4,0.3,0.9,0.3,1.5v4.5c0,0.9,0.1,1.6,0.4,2.2v0.2
		H355.9z M353.5,244.4c0.3,0,0.5,0,0.7-0.1c0.2-0.1,0.4-0.2,0.6-0.3c0.2-0.1,0.3-0.2,0.5-0.4c0.1-0.1,0.2-0.3,0.3-0.4v-1.9h-1.2
		c-0.8,0-1.5,0.1-1.9,0.4c-0.4,0.3-0.6,0.7-0.6,1.2c0,0.2,0,0.4,0.1,0.6c0.1,0.2,0.2,0.3,0.3,0.4c0.1,0.1,0.3,0.2,0.5,0.3
		C353,244.4,353.2,244.4,353.5,244.4z"/>
	<path fill="#FFFFFF" d="M362.3,236l0.1,1.2c0.4-0.4,0.8-0.8,1.3-1s1-0.4,1.7-0.4c0.5,0,0.9,0.1,1.3,0.2c0.4,0.1,0.7,0.3,1,0.6
		s0.5,0.7,0.6,1.2s0.2,1.1,0.2,1.7v6.5h-2.3v-6.5c0-0.3,0-0.6-0.1-0.9c-0.1-0.2-0.2-0.4-0.3-0.6s-0.3-0.3-0.6-0.3
		c-0.2-0.1-0.5-0.1-0.8-0.1c-0.5,0-0.9,0.1-1.2,0.3c-0.3,0.2-0.6,0.5-0.8,0.9v7.1h-2.3v-10H362.3z"/>
	<path fill="#FFFFFF" d="M370.4,240.9c0-0.8,0.1-1.5,0.3-2.1c0.2-0.6,0.4-1.2,0.8-1.6c0.3-0.5,0.8-0.8,1.2-1s1-0.4,1.7-0.4
		c0.6,0,1,0.1,1.5,0.3c0.4,0.2,0.8,0.5,1.1,0.8v-5.1h2.3V246h-2l-0.1-1c-0.3,0.4-0.7,0.7-1.1,0.9c-0.4,0.2-1,0.3-1.6,0.3
		c-0.6,0-1.2-0.1-1.6-0.4c-0.5-0.3-0.9-0.6-1.2-1.1s-0.6-1-0.8-1.6c-0.2-0.6-0.3-1.3-0.3-2V240.9z M372.6,241.1c0,0.4,0,0.9,0.1,1.3
		c0.1,0.4,0.2,0.7,0.4,1c0.2,0.3,0.4,0.5,0.7,0.7s0.6,0.3,1,0.3c0.5,0,0.9-0.1,1.2-0.3c0.3-0.2,0.6-0.5,0.8-0.9v-4.3
		c-0.2-0.4-0.5-0.7-0.8-0.9s-0.7-0.3-1.2-0.3c-0.4,0-0.8,0.1-1,0.3c-0.3,0.2-0.5,0.4-0.7,0.7s-0.3,0.6-0.4,1
		c-0.1,0.4-0.1,0.8-0.1,1.3V241.1z"/>
	<path fill="#FFFFFF" d="M383.6,245.5c0,0.3,0,0.6-0.1,1c-0.1,0.3-0.2,0.7-0.4,1c-0.2,0.3-0.3,0.6-0.6,0.9c-0.2,0.3-0.5,0.5-0.7,0.8
		l-1.2-0.7c0.1-0.2,0.3-0.4,0.4-0.6c0.1-0.2,0.2-0.4,0.3-0.7c0.1-0.2,0.1-0.5,0.2-0.7s0.1-0.5,0.1-0.8v-1.7h2L383.6,245.5z"/>
	<path fill="#FFFFFF" d="M393.2,233.6v2.4h1.8v1.7h-1.8v5.6c0,0.2,0,0.4,0.1,0.6c0,0.1,0.1,0.3,0.2,0.3c0.1,0.1,0.2,0.1,0.3,0.2
		c0.1,0,0.3,0,0.4,0c0.2,0,0.3,0,0.4,0c0.1,0,0.3,0,0.3-0.1v1.7c-0.2,0-0.4,0.1-0.6,0.1c-0.2,0-0.5,0.1-0.9,0.1c-0.4,0-0.7,0-1-0.1
		c-0.3-0.1-0.6-0.3-0.8-0.5c-0.2-0.2-0.4-0.5-0.5-0.9c-0.1-0.4-0.2-0.8-0.2-1.3v-5.7h-1.7V236h1.7v-2.4H393.2z"/>
	<path fill="#FFFFFF" d="M399,237.1c0.3-0.4,0.8-0.7,1.2-0.9s1-0.3,1.6-0.3c0.5,0,0.9,0.1,1.3,0.2c0.4,0.1,0.7,0.4,1,0.7
		s0.5,0.7,0.7,1.2c0.2,0.5,0.2,1.1,0.2,1.7v6.5h-2.3v-6.5c0-0.7-0.2-1.2-0.5-1.5c-0.3-0.3-0.7-0.4-1.3-0.4c-0.5,0-0.9,0.1-1.2,0.3
		s-0.6,0.5-0.8,0.9v7.2h-2.3v-14.2h2.3V237.1z"/>
	<path fill="#FFFFFF" d="M411.7,246.2c-0.7,0-1.4-0.1-2-0.4s-1.1-0.6-1.5-1s-0.7-0.9-1-1.5s-0.3-1.2-0.3-1.9V241
		c0-0.8,0.1-1.5,0.4-2.1c0.2-0.6,0.6-1.2,1-1.6c0.4-0.4,0.9-0.8,1.4-1c0.6-0.2,1.1-0.4,1.8-0.4c0.7,0,1.4,0.1,1.9,0.4
		c0.5,0.2,1,0.6,1.3,1s0.6,1,0.8,1.6c0.2,0.6,0.3,1.3,0.3,2v1h-6.6c0,0.4,0.1,0.7,0.2,1.1c0.1,0.3,0.3,0.6,0.5,0.8
		c0.2,0.2,0.5,0.4,0.8,0.6c0.3,0.1,0.7,0.2,1.1,0.2c0.6,0,1-0.1,1.5-0.3s0.8-0.5,1.1-0.9l1.2,1.2c-0.2,0.2-0.4,0.5-0.6,0.7
		c-0.2,0.2-0.5,0.4-0.8,0.6c-0.3,0.2-0.7,0.3-1.1,0.4C412.7,246.2,412.2,246.2,411.7,246.2z M411.4,237.6c-0.6,0-1.1,0.2-1.5,0.6
		c-0.4,0.4-0.6,1-0.7,1.8h4.3v-0.2c0-0.3-0.1-0.6-0.1-0.9c-0.1-0.3-0.2-0.5-0.4-0.7c-0.2-0.2-0.4-0.4-0.6-0.5
		C412.1,237.7,411.8,237.6,411.4,237.6z"/>
	<path fill="#FFFFFF" d="M432.8,244.3c-0.1,0.2-0.3,0.4-0.6,0.6c-0.3,0.2-0.6,0.4-1,0.6c-0.4,0.2-0.9,0.4-1.4,0.5s-1.2,0.2-2,0.2
		c-0.8,0-1.6-0.1-2.3-0.4c-0.7-0.3-1.3-0.7-1.8-1.3c-0.5-0.6-0.9-1.2-1.2-2s-0.4-1.7-0.4-2.8v-0.9c0-1,0.1-1.9,0.4-2.8
		c0.3-0.8,0.6-1.5,1.1-2c0.5-0.6,1.1-1,1.7-1.3c0.7-0.3,1.5-0.4,2.3-0.4c0.8,0,1.5,0.1,2.2,0.3c0.6,0.2,1.1,0.5,1.5,0.9
		c0.4,0.4,0.8,0.8,1,1.4c0.2,0.5,0.4,1.1,0.5,1.7h-2.3c-0.1-0.4-0.1-0.7-0.3-1c-0.1-0.3-0.3-0.6-0.5-0.8s-0.5-0.4-0.8-0.5
		c-0.3-0.1-0.7-0.2-1.2-0.2c-0.6,0-1,0.1-1.4,0.3s-0.7,0.5-1,0.9c-0.3,0.4-0.5,0.9-0.6,1.4s-0.2,1.2-0.2,2v0.9c0,0.7,0.1,1.4,0.2,2
		c0.2,0.6,0.4,1.1,0.7,1.4c0.3,0.4,0.7,0.7,1.1,0.9c0.4,0.2,0.9,0.3,1.5,0.3c0.4,0,0.7,0,1-0.1c0.3-0.1,0.5-0.1,0.7-0.2
		s0.4-0.2,0.5-0.3c0.1-0.1,0.2-0.2,0.3-0.3v-2.6h-2.8v-1.8h5.1V244.3z"/>
	<path fill="#FFFFFF" d="M440.4,238.1c-0.1,0-0.3,0-0.4-0.1c-0.2,0-0.3,0-0.5,0c-0.5,0-1,0.1-1.3,0.3c-0.3,0.2-0.6,0.5-0.8,0.9v6.9
		h-2.3v-10h2.2l0.1,1.1c0.3-0.4,0.6-0.7,0.9-1c0.4-0.2,0.8-0.3,1.3-0.3c0.1,0,0.3,0,0.4,0c0.2,0,0.3,0.1,0.4,0.1L440.4,238.1z"/>
	<path fill="#FFFFFF" d="M446.1,246.2c-0.7,0-1.4-0.1-2-0.4s-1.1-0.6-1.5-1s-0.7-0.9-1-1.5s-0.3-1.2-0.3-1.9V241
		c0-0.8,0.1-1.5,0.4-2.1c0.2-0.6,0.6-1.2,1-1.6c0.4-0.4,0.9-0.8,1.4-1c0.6-0.2,1.1-0.4,1.8-0.4c0.7,0,1.4,0.1,1.9,0.4
		c0.5,0.2,1,0.6,1.3,1s0.6,1,0.8,1.6c0.2,0.6,0.3,1.3,0.3,2v1h-6.6c0,0.4,0.1,0.7,0.2,1.1c0.1,0.3,0.3,0.6,0.5,0.8
		c0.2,0.2,0.5,0.4,0.8,0.6c0.3,0.1,0.7,0.2,1.1,0.2c0.6,0,1-0.1,1.5-0.3s0.8-0.5,1.1-0.9l1.2,1.2c-0.2,0.2-0.4,0.5-0.6,0.7
		c-0.2,0.2-0.5,0.4-0.8,0.6c-0.3,0.2-0.7,0.3-1.1,0.4C447,246.2,446.6,246.2,446.1,246.2z M445.8,237.6c-0.6,0-1.1,0.2-1.5,0.6
		c-0.4,0.4-0.6,1-0.7,1.8h4.3v-0.2c0-0.3-0.1-0.6-0.1-0.9c-0.1-0.3-0.2-0.5-0.4-0.7c-0.2-0.2-0.4-0.4-0.6-0.5
		C446.5,237.7,446.2,237.6,445.8,237.6z"/>
	<path fill="#FFFFFF" d="M456.3,246.2c-0.7,0-1.4-0.1-2-0.4s-1.1-0.6-1.5-1s-0.7-0.9-1-1.5s-0.3-1.2-0.3-1.9V241
		c0-0.8,0.1-1.5,0.4-2.1c0.2-0.6,0.6-1.2,1-1.6c0.4-0.4,0.9-0.8,1.4-1c0.6-0.2,1.1-0.4,1.8-0.4c0.7,0,1.4,0.1,1.9,0.4
		c0.5,0.2,1,0.6,1.3,1s0.6,1,0.8,1.6c0.2,0.6,0.3,1.3,0.3,2v1h-6.6c0,0.4,0.1,0.7,0.2,1.1c0.1,0.3,0.3,0.6,0.5,0.8
		c0.2,0.2,0.5,0.4,0.8,0.6c0.3,0.1,0.7,0.2,1.1,0.2c0.6,0,1-0.1,1.5-0.3s0.8-0.5,1.1-0.9l1.2,1.2c-0.2,0.2-0.4,0.5-0.6,0.7
		c-0.2,0.2-0.5,0.4-0.8,0.6c-0.3,0.2-0.7,0.3-1.1,0.4C457.2,246.2,456.8,246.2,456.3,246.2z M456,237.6c-0.6,0-1.1,0.2-1.5,0.6
		c-0.4,0.4-0.6,1-0.7,1.8h4.3v-0.2c0-0.3-0.1-0.6-0.1-0.9c-0.1-0.3-0.2-0.5-0.4-0.7c-0.2-0.2-0.4-0.4-0.6-0.5
		C456.7,237.7,456.4,237.6,456,237.6z"/>
	<path fill="#FFFFFF" d="M465.3,241.7l-1,1v3.3H462v-14.2h2.3v8.2l0.7-0.9l2.8-3.1h2.7l-3.7,4.2l4.1,5.9h-2.6L465.3,241.7z"/>
	<path fill="#FFFFFF" d="M485.5,242.9l1.6-6.9h2.2l-2.7,10h-1.9l-2.2-6.9l-2.1,6.9h-1.9l-2.7-10h2.2l1.6,6.9l2.1-6.9h1.7
		L485.5,242.9z"/>
	<path fill="#FFFFFF" d="M496.8,246c-0.1-0.1-0.1-0.3-0.2-0.4c0-0.2-0.1-0.3-0.1-0.5c-0.1,0.2-0.3,0.3-0.5,0.4s-0.4,0.3-0.6,0.4
		c-0.2,0.1-0.5,0.2-0.7,0.2c-0.3,0.1-0.5,0.1-0.8,0.1c-0.5,0-1-0.1-1.4-0.2s-0.8-0.4-1.1-0.6c-0.3-0.3-0.5-0.6-0.7-1
		c-0.2-0.4-0.3-0.8-0.3-1.2c0-0.5,0.1-1,0.3-1.4c0.2-0.4,0.5-0.8,0.9-1c0.4-0.3,0.9-0.5,1.4-0.6c0.6-0.1,1.2-0.2,1.9-0.2h1.4v-0.7
		c0-0.5-0.1-0.9-0.4-1.2c-0.3-0.3-0.7-0.5-1.3-0.5c-0.3,0-0.5,0-0.7,0.1c-0.2,0.1-0.4,0.2-0.6,0.3c-0.2,0.1-0.3,0.3-0.4,0.4
		c-0.1,0.2-0.1,0.3-0.1,0.5h-2.3c0-0.4,0.1-0.8,0.3-1.1c0.2-0.4,0.5-0.7,0.8-1c0.4-0.3,0.8-0.5,1.3-0.7c0.5-0.2,1.1-0.3,1.7-0.3
		c0.6,0,1.1,0.1,1.6,0.2c0.5,0.1,0.9,0.4,1.2,0.6c0.3,0.3,0.6,0.6,0.8,1.1c0.2,0.4,0.3,0.9,0.3,1.5v4.5c0,0.9,0.1,1.6,0.4,2.2v0.2
		H496.8z M494.3,244.4c0.3,0,0.5,0,0.7-0.1c0.2-0.1,0.4-0.2,0.6-0.3c0.2-0.1,0.3-0.2,0.5-0.4c0.1-0.1,0.2-0.3,0.3-0.4v-1.9h-1.2
		c-0.8,0-1.5,0.1-1.9,0.4c-0.4,0.3-0.6,0.7-0.6,1.2c0,0.2,0,0.4,0.1,0.6c0.1,0.2,0.2,0.3,0.3,0.4c0.1,0.1,0.3,0.2,0.5,0.3
		C493.8,244.4,494.1,244.4,494.3,244.4z"/>
	<path fill="#FFFFFF" d="M504.5,242.8l2-6.8h2.4l-4,11.6c-0.1,0.3-0.2,0.5-0.4,0.8c-0.2,0.3-0.3,0.6-0.6,0.8
		c-0.2,0.3-0.5,0.5-0.9,0.6s-0.8,0.3-1.3,0.3c-0.2,0-0.4,0-0.6-0.1c-0.2,0-0.4-0.1-0.5-0.1v-1.7c0.1,0,0.1,0,0.2,0
		c0.1,0,0.2,0,0.2,0c0.3,0,0.5,0,0.7-0.1c0.2,0,0.4-0.1,0.5-0.2s0.3-0.2,0.4-0.4c0.1-0.2,0.2-0.4,0.3-0.6l0.3-0.9l-3.5-10h2.4
		L504.5,242.8z"/>
</g>
<g opacity="0.75">
	<path fill="#FFFFFF" d="M174,222.1c-0.2,0.2-0.5,0.5-0.8,0.7s-0.8,0.5-1.3,0.7s-1.1,0.4-1.8,0.5c-0.7,0.1-1.4,0.2-2.3,0.2
		c-1,0-2-0.2-2.8-0.5s-1.6-0.8-2.2-1.5s-1.1-1.4-1.4-2.4c-0.3-0.9-0.5-2-0.5-3.2v-0.9c0-1.2,0.2-2.3,0.5-3.2s0.8-1.7,1.4-2.4
		c0.6-0.6,1.3-1.1,2.1-1.5s1.7-0.5,2.7-0.5c1.1,0,2,0.1,2.8,0.4c0.8,0.3,1.4,0.6,1.9,1.1s0.9,1,1.2,1.7s0.4,1.4,0.5,2.1h-3.6
		c-0.1-0.4-0.1-0.7-0.3-1s-0.3-0.6-0.5-0.8c-0.2-0.2-0.5-0.4-0.8-0.5s-0.7-0.2-1.1-0.2c-0.5,0-0.9,0.1-1.2,0.3
		c-0.4,0.2-0.7,0.5-0.9,0.9c-0.3,0.4-0.5,0.9-0.6,1.5s-0.2,1.3-0.2,2.1v0.9c0,1.6,0.3,2.7,0.8,3.5c0.5,0.8,1.4,1.2,2.5,1.2
		c0.3,0,0.6,0,0.8-0.1c0.2,0,0.4-0.1,0.6-0.2s0.3-0.1,0.5-0.2c0.1-0.1,0.2-0.2,0.3-0.2v-2.4h-2.6v-2.6h6.4V222.1z"/>
	<path fill="#FFFFFF" d="M182,218.5h-2v5.5h-3.8v-15.6h6.2c0.9,0,1.7,0.1,2.4,0.3c0.7,0.2,1.4,0.5,1.9,0.9c0.5,0.4,0.9,0.9,1.2,1.5
		c0.3,0.6,0.4,1.3,0.4,2c0,0.6-0.1,1.1-0.2,1.6c-0.1,0.5-0.3,0.9-0.6,1.2c-0.2,0.4-0.5,0.7-0.9,0.9c-0.3,0.3-0.7,0.5-1.1,0.7
		l3.3,6.3v0.2h-4L182,218.5z M180,215.6h2.4c0.7,0,1.3-0.2,1.6-0.6c0.4-0.4,0.5-0.9,0.5-1.6s-0.2-1.2-0.5-1.6
		c-0.4-0.4-0.9-0.6-1.6-0.6H180V215.6z"/>
	<path fill="#FFFFFF" d="M200.2,217.4h-5.9v3.7h7v2.9h-10.8v-15.6h10.8v2.9h-7v3.3h5.9V217.4z"/>
	<path fill="#FFFFFF" d="M212.5,217.4h-5.9v3.7h7v2.9h-10.8v-15.6h10.8v2.9h-7v3.3h5.9V217.4z"/>
	<path fill="#FFFFFF" d="M220.5,218.2l-1.5,1.7v4.1h-3.8v-15.6h3.8v6.9l1.3-2l3.4-4.9h4.7l-5.3,6.9l5.3,8.7h-4.5L220.5,218.2z"/>
	<path fill="#FFFFFF" d="M235,215.7c0-0.4,0.1-0.7,0.2-1s0.3-0.6,0.5-0.8s0.5-0.4,0.9-0.5s0.7-0.2,1.1-0.2c0.4,0,0.8,0.1,1.2,0.2
		c0.3,0.1,0.6,0.3,0.9,0.5c0.2,0.2,0.4,0.5,0.5,0.8c0.1,0.3,0.2,0.7,0.2,1v0.5c0,0.4-0.1,0.7-0.2,1c-0.1,0.3-0.3,0.6-0.5,0.8
		c-0.2,0.2-0.5,0.4-0.9,0.5c-0.3,0.1-0.7,0.2-1.1,0.2c-0.4,0-0.8-0.1-1.1-0.2c-0.3-0.1-0.6-0.3-0.9-0.5c-0.2-0.2-0.4-0.5-0.5-0.8
		c-0.1-0.3-0.2-0.7-0.2-1V215.7z"/>
	<path fill="#FFFFFF" d="M253.7,208.4l3.5,10.9l3.5-10.9h5V224h-3.8v-3.7l0.4-7.5l-3.8,11.1H256l-3.8-11.1l0.4,7.5v3.7h-3.8v-15.6
		H253.7z"/>
	<path fill="#FFFFFF" d="M277.7,217.4h-5.9v3.7h7v2.9H268v-15.6h10.8v2.9h-7v3.3h5.9V217.4z"/>
	<path fill="#FFFFFF" d="M280.3,224v-15.6h5c1.1,0,2,0.2,2.9,0.5s1.7,0.9,2.3,1.5c0.6,0.7,1.1,1.5,1.5,2.4c0.4,0.9,0.5,1.9,0.5,3
		v0.7c0,1.1-0.2,2.1-0.5,3s-0.9,1.7-1.5,2.4c-0.6,0.7-1.4,1.2-2.3,1.5s-1.8,0.5-2.9,0.5H280.3z M284.1,211.3v9.8h1.3
		c1.1,0,1.9-0.4,2.5-1.2c0.6-0.8,0.9-1.9,0.9-3.4v-0.7c0-1.5-0.3-2.6-0.9-3.4s-1.4-1.1-2.5-1.1H284.1z"/>
	<path fill="#FFFFFF" d="M298.6,224h-3.8v-15.6h3.8V224z"/>
	<path fill="#FFFFFF" d="M313.2,211.3h-4.7V224h-3.8v-12.7h-4.6v-2.9h13.1V211.3z"/>
	<path fill="#FFFFFF" d="M324,217.4h-5.9v3.7h7v2.9h-10.8v-15.6h10.8v2.9h-7v3.3h5.9V217.4z"/>
	<path fill="#FFFFFF" d="M332.4,218.5h-2v5.5h-3.8v-15.6h6.2c0.9,0,1.7,0.1,2.4,0.3c0.7,0.2,1.4,0.5,1.9,0.9
		c0.5,0.4,0.9,0.9,1.2,1.5c0.3,0.6,0.4,1.3,0.4,2c0,0.6-0.1,1.1-0.2,1.6c-0.1,0.5-0.3,0.9-0.6,1.2c-0.2,0.4-0.5,0.7-0.9,0.9
		c-0.3,0.3-0.7,0.5-1.1,0.7l3.3,6.3v0.2h-4L332.4,218.5z M330.4,215.6h2.4c0.7,0,1.3-0.2,1.6-0.6c0.4-0.4,0.5-0.9,0.5-1.6
		s-0.2-1.2-0.5-1.6c-0.4-0.4-0.9-0.6-1.6-0.6h-2.4V215.6z"/>
	<path fill="#FFFFFF" d="M346.8,218.5h-2v5.5H341v-15.6h6.2c0.9,0,1.7,0.1,2.4,0.3c0.7,0.2,1.4,0.5,1.9,0.9c0.5,0.4,0.9,0.9,1.2,1.5
		c0.3,0.6,0.4,1.3,0.4,2c0,0.6-0.1,1.1-0.2,1.6c-0.1,0.5-0.3,0.9-0.6,1.2c-0.2,0.4-0.5,0.7-0.9,0.9c-0.3,0.3-0.7,0.5-1.1,0.7
		l3.3,6.3v0.2h-4L346.8,218.5z M344.8,215.6h2.4c0.7,0,1.3-0.2,1.6-0.6c0.4-0.4,0.5-0.9,0.5-1.6s-0.2-1.2-0.5-1.6
		c-0.4-0.4-0.9-0.6-1.6-0.6h-2.4V215.6z"/>
	<path fill="#FFFFFF" d="M364.2,221.1h-5.2l-0.9,2.9h-4l5.7-15.6h3.5l5.8,15.6h-4L364.2,221.1z M360,218.2h3.4l-1.7-5.4L360,218.2z"
		/>
	<path fill="#FFFFFF" d="M383.4,224h-3.7l-5.5-9.7v9.7h-3.8v-15.6h3.8l5.5,9.7v-9.7h3.8V224z"/>
	<path fill="#FFFFFF" d="M395.5,217.4h-5.9v3.7h7v2.9h-10.8v-15.6h10.8v2.9h-7v3.3h5.9V217.4z"/>
	<path fill="#FFFFFF" d="M407,221.1h-5.2l-0.9,2.9h-4l5.7-15.6h3.5l5.8,15.6h-4L407,221.1z M402.7,218.2h3.4l-1.7-5.4L402.7,218.2z"
		/>
	<path fill="#FFFFFF" d="M426.1,224h-3.7l-5.5-9.7v9.7h-3.8v-15.6h3.8l5.5,9.7v-9.7h3.8V224z"/>
	<path fill="#FFFFFF" d="M434.3,215.7c0-0.4,0.1-0.7,0.2-1s0.3-0.6,0.5-0.8s0.5-0.4,0.9-0.5c0.3-0.1,0.7-0.2,1.1-0.2
		c0.4,0,0.8,0.1,1.2,0.2c0.3,0.1,0.6,0.3,0.9,0.5c0.2,0.2,0.4,0.5,0.5,0.8c0.1,0.3,0.2,0.7,0.2,1v0.5c0,0.4-0.1,0.7-0.2,1
		c-0.1,0.3-0.3,0.6-0.5,0.8c-0.2,0.2-0.5,0.4-0.9,0.5c-0.3,0.1-0.7,0.2-1.1,0.2c-0.4,0-0.8-0.1-1.1-0.2c-0.3-0.1-0.6-0.3-0.9-0.5
		c-0.2-0.2-0.4-0.5-0.5-0.8c-0.1-0.3-0.2-0.7-0.2-1V215.7z"/>
	<path fill="#FFFFFF" d="M456.5,221.1h-5.2l-0.9,2.9h-4l5.7-15.6h3.5l5.8,15.6h-4L456.5,221.1z M452.2,218.2h3.4l-1.7-5.4
		L452.2,218.2z"/>
	<path fill="#FFFFFF" d="M468.4,218.5h-2v5.5h-3.8v-15.6h6.2c0.9,0,1.7,0.1,2.4,0.3c0.7,0.2,1.4,0.5,1.9,0.9
		c0.5,0.4,0.9,0.9,1.2,1.5c0.3,0.6,0.4,1.3,0.4,2c0,0.6-0.1,1.1-0.2,1.6c-0.1,0.5-0.3,0.9-0.6,1.2c-0.2,0.4-0.5,0.7-0.9,0.9
		c-0.3,0.3-0.7,0.5-1.1,0.7l3.3,6.3v0.2h-4L468.4,218.5z M466.4,215.6h2.4c0.7,0,1.3-0.2,1.6-0.6c0.4-0.4,0.5-0.9,0.5-1.6
		s-0.2-1.2-0.5-1.6c-0.4-0.4-0.9-0.6-1.6-0.6h-2.4V215.6z"/>
	<path fill="#FFFFFF" d="M485.8,221.1h-5.2l-0.9,2.9h-4l5.7-15.6h3.5l5.8,15.6h-4L485.8,221.1z M481.6,218.2h3.4l-1.7-5.4
		L481.6,218.2z"/>
	<path fill="#FFFFFF" d="M491.9,224v-15.6h5.6c1,0,1.8,0.1,2.6,0.3c0.8,0.2,1.4,0.4,1.9,0.8s0.9,0.8,1.2,1.3
		c0.3,0.5,0.4,1.2,0.4,1.9c0,0.4,0,0.7-0.1,1c-0.1,0.3-0.2,0.6-0.4,0.9c-0.2,0.3-0.4,0.6-0.7,0.8c-0.3,0.2-0.6,0.4-1,0.6
		c0.5,0.1,0.9,0.3,1.2,0.5s0.6,0.5,0.8,0.8s0.3,0.6,0.4,1c0.1,0.3,0.1,0.7,0.1,1.1c0,1.5-0.5,2.7-1.5,3.5c-1,0.8-2.5,1.2-4.4,1.2
		H491.9z M495.7,214.9h2c0.8,0,1.4-0.2,1.8-0.5s0.5-0.7,0.5-1.3c0-0.7-0.2-1.1-0.6-1.4c-0.4-0.3-1-0.4-1.8-0.4h-1.8V214.9z
		 M495.7,217.4v3.7h2.5c0.4,0,0.7,0,1-0.1c0.3-0.1,0.5-0.2,0.7-0.4c0.2-0.2,0.3-0.3,0.4-0.6s0.1-0.4,0.1-0.7c0-0.3,0-0.6-0.1-0.8
		s-0.2-0.4-0.3-0.6c-0.2-0.2-0.4-0.3-0.6-0.4s-0.6-0.1-0.9-0.1H495.7z"/>
	<path fill="#FFFFFF" d="M510.1,224h-3.8v-15.6h3.8V224z"/>
	<path fill="#FFFFFF" d="M525.4,218.7c0,0.8-0.2,1.6-0.5,2.2c-0.3,0.7-0.8,1.3-1.3,1.7c-0.6,0.5-1.2,0.9-2,1.1
		c-0.8,0.3-1.7,0.4-2.6,0.4c-1,0-2-0.2-2.8-0.5c-0.8-0.4-1.5-0.9-2.1-1.5c-0.6-0.7-1-1.5-1.3-2.4c-0.3-0.9-0.4-2-0.4-3.2v-0.8
		c0-1.2,0.2-2.2,0.5-3.2c0.3-0.9,0.8-1.7,1.3-2.4c0.6-0.7,1.3-1.2,2.1-1.5c0.8-0.4,1.7-0.5,2.7-0.5c1,0,1.9,0.1,2.7,0.4
		c0.8,0.3,1.4,0.7,2,1.2s1,1.1,1.3,1.8s0.5,1.4,0.6,2.2h-3.8c0-0.4-0.1-0.8-0.2-1.2c-0.1-0.3-0.3-0.6-0.5-0.8s-0.5-0.4-0.8-0.5
		s-0.8-0.2-1.3-0.2c-0.5,0-0.9,0.1-1.2,0.3s-0.6,0.4-0.9,0.8s-0.4,0.9-0.5,1.4c-0.1,0.6-0.2,1.3-0.2,2.1v0.9c0,0.8,0,1.5,0.2,2.1
		s0.3,1.1,0.5,1.4c0.2,0.4,0.5,0.6,0.9,0.8c0.4,0.2,0.8,0.3,1.3,0.3c0.9,0,1.5-0.2,2-0.6s0.7-1.1,0.7-1.9H525.4z"/>
</g>
<g>
</g>
<g>
</g>
<g>
</g>
<g>
</g>
<g>
</g>
<g>
</g>
</svg>
